REM MD5 1eb51be61bd7c2501c0b85b72deabaa3
FILE "SuperLite 1500 Series - Oekaki Puzzle 4 (Japan).bin" BINARY
  TRACK 01 MODE2/2352
    INDEX 01 00:00:00
  TRACK 02 AUDIO
    INDEX 00 00:09:13
    INDEX 01 00:11:13
  TRACK 03 AUDIO
    INDEX 00 02:14:30
    INDEX 01 02:16:30
  TRACK 04 AUDIO
    INDEX 00 06:19:42
    INDEX 01 06:21:42
  TRACK 05 AUDIO
    INDEX 00 16:24:54
    INDEX 01 16:26:54
  TRACK 06 AUDIO
    INDEX 00 26:25:22
    INDEX 01 26:27:22
REM LEADOUT 36:30:35
